<?xml version="1.0" encoding="UTF-8"?>
<svg width="1200" height="900" viewBox="0 0 1200 900" xmlns="http://www.w3.org/2000/svg" role="img" aria-label="HypeKicks Shoe 03">
  <defs>
    <linearGradient id="bg03" x1="0" y1="0" x2="1" y2="1">
      <stop offset="0%" stop-color="#2a2f45" />
      <stop offset="100%" stop-color="#111820" />
    </linearGradient>
    <linearGradient id="shoe03" x1="0" y1="0" x2="1" y2="0">
      <stop offset="0%" stop-color="#f6f8fb" />
      <stop offset="100%" stop-color="#dbe4ee" />
    </linearGradient>
  </defs>
  <rect width="1200" height="900" fill="url(#bg03)"/>
  <ellipse cx="600" cy="710" rx="360" ry="55" fill="rgba(0,0,0,0.34)"/>
  <path d="M260 620 C350 560 520 500 760 520 C820 524 888 540 936 580 C948 592 954 610 950 632 C948 646 938 656 922 662 L318 690 C286 692 262 678 252 652 C248 640 250 628 260 620 Z" fill="url(#shoe03)"/>
  <path d="M280 620 C388 560 524 530 742 548 C800 552 852 566 896 594" stroke="#f7b731" stroke-width="22" fill="none" stroke-linecap="round"/>
  <path d="M390 580 L755 595" stroke="#2f3f57" stroke-width="6" opacity="0.34"/>
  <path d="M372 604 L738 618" stroke="#2f3f57" stroke-width="6" opacity="0.24"/>
  <circle cx="900" cy="603" r="16" fill="#f7b731"/>
  <rect x="302" y="642" width="620" height="28" rx="14" fill="#f3f6fb" opacity="0.88"/>
  <text x="90" y="132" fill="rgba(255,255,255,0.85)" font-family="'Barlow Condensed',Arial,sans-serif" font-size="54" letter-spacing="8">HYPEKICKS</text>
  <text x="90" y="184" fill="#f7b731" font-family="'Manrope',Arial,sans-serif" font-size="28" letter-spacing="3">MODEL 03</text>
</svg>